<?xml version="1.0" standalone="no"?>
<!DOCTYPE svg PUBLIC "-//W3C//DTD SVG 20010904//EN"
 "http://www.w3.org/TR/2001/REC-SVG-20010904/DTD/svg10.dtd">
<svg version="1.0" xmlns="http://www.w3.org/2000/svg"
 width="600.000000pt" height="600.000000pt" viewBox="0 0 600.000000 600.000000"
 preserveAspectRatio="xMidYMid meet">

<g transform="translate(0.000000,600.000000) scale(0.100000,-0.100000)"
fill="#000000" stroke="none">
<path d="M2856 5669 c-106 -26 -207 -81 -287 -157 -75 -71 -165 -198 -202
-287 -54 -128 -116 -389 -152 -640 -15 -99 -33 -214 -41 -255 -22 -109 -115
-335 -200 -487 -41 -72 -74 -142 -74 -156 0 -55 65 -73 205 -57 252 28 240 26
331 81 47 28 99 67 116 85 35 38 44 41 68 19 10 -9 41 -24 71 -34 38 -14 54
-25 54 -37 0 -14 -15 -20 -75 -30 -114 -20 -354 -80 -391 -99 -116 -61 -269
-192 -370 -320 -83 -105 -219 -341 -259 -448 l-10 -28 -93 5 c-50 4 -139 11
-197 16 -164 15 -353 30 -500 40 -74 5 -193 14 -265 20 -71 6 -215 17 -320 25
-123 9 -203 19 -228 29 l-37 16 0 -70 0 -70 46 0 c25 0 87 -4 137 -9 125 -13
322 -30 497 -41 80 -6 197 -15 260 -20 63 -6 205 -17 315 -25 110 -8 252 -19
315 -24 63 -5 180 -15 260 -21 80 -6 151 -13 159 -16 11 -3 12 -132 9 -772
l-5 -767 -59 0 c-32 1 -115 6 -184 13 -69 6 -201 19 -295 27 -93 9 -213 20
-265 25 -52 5 -174 16 -270 24 -96 8 -195 18 -220 21 -25 2 -124 12 -220 20
-96 9 -222 20 -280 25 -58 6 -126 10 -152 10 l-48 0 0 -49 c0 -58 -2 -57 120
-66 47 -3 123 -10 170 -15 47 -5 164 -16 260 -25 258 -22 395 -35 485 -45 44
-5 121 -12 170 -15 50 -3 126 -10 170 -15 44 -5 168 -16 275 -25 107 -9 225
-20 262 -25 140 -21 154 -16 351 114 143 94 149 97 180 86 94 -34 887 -14
1232 30 190 24 396 65 442 87 18 8 36 25 39 37 2 11 -9 90 -26 174 -16 84 -30
158 -30 165 0 7 20 23 45 36 62 33 158 127 186 181 12 25 37 94 55 153 18 60
35 111 37 114 3 2 24 -1 46 -8 50 -15 88 0 99 40 12 45 5 262 -12 361 -51 289
-137 587 -215 737 -27 53 -121 154 -197 213 -181 139 -204 208 -133 405 67
189 80 251 87 414 9 189 2 276 -37 464 -36 173 -74 270 -152 386 -152 227
-289 340 -503 416 -185 66 -392 83 -550 44z m340 -184 c38 -33 69 -75 114
-153 33 -59 95 -152 136 -207 42 -56 99 -148 129 -210 29 -60 87 -156 128
-212 41 -57 87 -123 101 -147 63 -107 74 -279 25 -386 -35 -74 -68 -111 -125
-139 -70 -34 -82 -47 -95 -107 -15 -65 -10 -77 60 -160 28 -34 51 -67 51 -72
0 -28 100 -74 207 -97 17 -3 37 -12 43 -20 9 -11 4 -16 -27 -24 -97 -27 -220
-2 -311 63 -63 44 -182 232 -182 287 0 12 17 52 38 90 27 51 42 69 58 69 11 0
45 7 75 16 74 22 152 101 169 173 20 84 2 141 -83 257 -99 135 -99 136 -141
249 -49 131 -124 269 -204 373 -81 107 -253 382 -246 393 10 17 27 9 80 -36z
m-86 -105 c73 -124 105 -173 178 -269 41 -53 99 -145 129 -205 63 -125 64
-116 -32 -162 -63 -30 -81 -30 -100 0 -21 32 -36 35 -194 37 -129 2 -135 1
-153 -21 -17 -21 -26 -23 -99 -21 -80 2 -82 3 -118 40 -42 45 -97 57 -205 46
-36 -4 -66 -4 -66 -1 0 4 6 19 14 34 11 21 28 31 81 46 63 18 69 18 101 2 59
-28 96 -17 75 22 -17 32 -78 55 -130 49 -25 -2 -54 -8 -63 -12 -26 -11 -23 20
11 103 64 159 136 240 254 290 269 113 265 112 317 22z m414 -739 c32 -81 66
-136 130 -211 27 -30 54 -69 62 -87 15 -34 10 -84 -12 -119 -19 -31 -99 -65
-158 -67 l-51 -2 -38 -70 c-63 -116 -69 -120 -291 -190 -231 -73 -400 -80
-501 -21 -124 73 -199 158 -239 271 -40 113 -40 115 -16 115 38 0 80 28 80 55
0 31 -32 49 -75 41 l-32 -6 -6 57 c-3 32 -3 61 1 65 4 3 31 2 61 -3 33 -5 81
-5 120 1 36 5 69 10 73 10 3 0 6 -21 5 -46 -2 -40 2 -49 31 -75 28 -26 40 -29
95 -29 69 0 101 15 95 46 -3 17 -11 19 -66 16 -103 -6 -114 19 -56 126 28 54
34 74 30 103 -5 28 -2 38 10 43 26 10 104 7 125 -5 18 -9 20 -17 14 -58 -8
-61 9 -127 39 -146 29 -19 128 -30 200 -21 79 10 110 39 137 127 l21 69 81 39
c45 22 87 40 94 40 6 1 23 -30 37 -68z m-1217 -203 c3 -222 65 -405 180 -529
l24 -26 -37 -32 c-89 -73 -222 -126 -347 -137 -64 -6 -74 -4 -90 14 -15 16
-16 25 -8 40 8 16 32 24 108 37 116 21 147 35 168 76 15 28 14 36 -6 117 -19
75 -22 116 -23 292 -1 113 2 213 6 223 16 38 25 13 25 -75z m1093 -660 c18
-51 42 -108 53 -127 l21 -34 -57 -53 c-31 -29 -77 -67 -101 -83 -68 -47 -215
-117 -276 -131 -65 -16 -164 -16 -202 -1 l-28 11 0 195 0 195 49 0 c70 0 173
22 346 74 83 25 153 45 156 45 4 1 21 -41 39 -91z m-680 -191 c0 -24 3 -105 6
-179 l7 -135 -69 -40 c-174 -100 -182 -104 -197 -89 -22 22 -106 380 -93 393
9 9 299 92 324 92 19 1 22 -4 22 -42z m880 -74 c33 -25 60 -50 60 -54 0 -4
-18 -46 -40 -94 -42 -91 -122 -215 -166 -256 l-26 -24 -25 30 c-77 93 -143
177 -143 183 0 12 50 59 140 132 47 38 95 82 108 99 12 17 25 31 27 31 3 0 32
-21 65 -47z m441 -1207 c63 -8 128 -17 144 -21 48 -11 175 -57 175 -64 -1 -25
-73 -230 -94 -265 -31 -52 -100 -115 -170 -155 -172 -97 -716 -229 -1221 -296
-167 -22 -377 -53 -507 -76 -64 -11 -148 -19 -185 -17 l-68 3 -3 120 c-2 89 1
125 11 139 11 15 48 23 201 42 215 27 368 60 616 133 357 104 663 222 737 285
18 15 48 58 67 96 18 38 37 73 41 79 9 15 119 14 256 -3z m-1706 -976 c5 -8
-173 -132 -212 -147 -10 -4 -13 13 -13 76 l0 81 109 0 c61 0 113 -4 116 -10z"/>
<path d="M3045 4946 c-35 -10 -40 -15 -40 -41 0 -33 1 -33 75 -15 77 19 185
-2 257 -51 47 -33 56 -35 72 -15 19 23 -2 50 -61 84 -84 48 -216 65 -303 38z"/>
<path d="M3573 4384 c-3 -9 -1 -25 5 -35 7 -10 12 -37 12 -60 0 -36 2 -40 22
-37 46 6 77 117 39 138 -30 15 -71 12 -78 -6z"/>
<path d="M3164 4310 c-36 -14 -37 -29 -5 -60 31 -32 59 -37 109 -19 70 24 43
89 -37 88 -25 0 -56 -4 -67 -9z"/>
<path d="M2653 4103 c-18 -7 -16 -48 2 -67 40 -40 159 -47 225 -13 56 29 71
51 47 74 -16 16 -19 16 -62 -5 -57 -27 -109 -28 -158 -2 -20 11 -38 20 -39 19
-2 0 -9 -3 -15 -6z"/>
<path d="M937 2136 c-21 -8 -46 -21 -56 -31 -17 -15 -21 -14 -56 10 -56 37
-126 35 -166 -4 -23 -24 -29 -38 -29 -73 1 -57 14 -84 80 -164 63 -76 131
-127 162 -122 55 8 198 234 198 312 0 70 -56 100 -133 72z"/>
</g>
</svg>
