<?xml version="1.0" standalone="no"?>
<!DOCTYPE svg PUBLIC "-//W3C//DTD SVG 20010904//EN"
 "http://www.w3.org/TR/2001/REC-SVG-20010904/DTD/svg10.dtd">
<svg version="1.0" xmlns="http://www.w3.org/2000/svg"
 width="203.000000pt" height="220.000000pt" viewBox="0 0 203.000000 220.000000"
 preserveAspectRatio="xMidYMid meet">

<g transform="translate(0.000000,220.000000) scale(0.100000,-0.100000)"
fill="#000000" stroke="none">
<path d="M940 1933 c-94 -9 -194 -51 -267 -110 -51 -41 -124 -140 -157 -214
-37 -80 -91 -303 -115 -474 -34 -237 -77 -366 -181 -546 -27 -48 -50 -94 -50
-103 0 -8 12 -23 26 -32 24 -16 36 -16 163 -3 129 14 141 17 202 54 35 21 74
50 86 64 l21 26 47 -25 c41 -23 57 -25 158 -24 101 0 123 4 226 37 63 20 119
37 125 37 6 0 29 -35 51 -78 80 -156 192 -230 338 -220 75 5 147 32 147 55 0
8 -16 29 -34 48 -35 35 -56 86 -56 138 0 16 16 76 35 135 52 154 56 181 56
337 1 112 -4 165 -25 264 -30 146 -68 232 -153 347 -92 124 -200 202 -342 248
-71 23 -210 48 -249 44 -9 0 -33 -3 -52 -5z m170 -149 c21 -19 59 -70 84 -112
24 -42 69 -111 100 -152 30 -41 72 -109 92 -150 20 -41 63 -112 95 -157 87
-120 103 -162 104 -258 0 -106 -28 -166 -100 -212 -72 -47 -72 -48 -80 -92 -5
-33 -3 -46 15 -68 11 -16 37 -49 56 -74 35 -48 52 -58 138 -82 59 -16 69 -32
25 -41 -130 -26 -243 40 -319 187 l-35 67 30 56 c17 31 35 58 40 59 6 2 27 6
49 10 27 4 53 20 85 50 l46 44 0 73 0 73 -61 82 c-38 50 -72 110 -89 155 -37
99 -97 209 -158 291 -60 82 -177 265 -177 278 0 18 20 9 60 -27z m-48 -98 c21
-38 71 -113 110 -165 72 -97 133 -213 125 -236 -3 -6 -26 -22 -52 -34 l-46
-22 -30 26 c-28 23 -38 25 -134 25 -87 0 -106 -3 -113 -17 -8 -13 -22 -16 -68
-14 -48 2 -64 7 -87 29 -25 24 -37 27 -108 29 -43 1 -79 4 -79 7 0 3 0 12 0
20 0 9 21 21 55 31 50 14 58 14 85 0 32 -17 50 -13 50 10 0 26 -59 48 -112 42
-31 -4 -48 -2 -48 4 0 6 17 48 39 93 52 112 99 156 209 196 47 17 92 35 101
40 37 23 62 7 103 -64z m282 -504 c15 -45 41 -86 114 -182 69 -92 19 -170
-113 -174 -13 -1 -29 -18 -47 -51 -15 -27 -38 -60 -52 -72 -14 -12 -83 -40
-153 -63 -109 -36 -140 -42 -223 -43 -88 -1 -99 1 -144 27 -76 44 -123 93
-156 160 -47 98 -48 109 -5 125 28 10 35 17 33 34 -2 17 -11 23 -41 25 -36 3
-37 4 -37 45 l0 42 93 0 93 0 0 -34 c0 -45 32 -71 88 -71 46 0 83 20 72 38 -4
7 -30 12 -57 12 -64 0 -71 17 -36 81 15 26 27 61 27 78 0 25 5 32 26 37 15 4
39 3 53 -2 24 -9 26 -15 27 -68 1 -36 8 -64 17 -73 34 -35 163 -39 214 -7 13
8 29 36 39 67 16 51 20 56 78 85 33 17 64 31 68 31 3 1 14 -21 22 -47z m-876
-174 c3 -134 38 -242 107 -332 l38 -50 -24 -19 c-13 -11 -58 -36 -99 -56 -58
-27 -91 -37 -143 -39 -38 -3 -73 0 -78 5 -21 21 3 42 59 53 99 18 114 25 134
51 19 25 19 29 4 79 -28 95 -34 390 -7 390 4 0 8 -37 9 -82z"/>
<path d="M1011 1400 c-38 -9 -55 -29 -40 -46 8 -9 18 -10 41 -2 48 17 143 4
188 -26 22 -14 44 -26 49 -26 20 0 22 22 4 42 -41 47 -167 77 -242 58z"/>
<path d="M1380 982 c0 -10 3 -22 7 -26 4 -4 7 -19 8 -33 0 -38 21 -39 40 -3
25 47 17 74 -22 78 -27 3 -33 0 -33 -16z"/>
<path d="M1073 923 c-9 -24 34 -56 66 -48 35 8 55 30 48 49 -9 23 -105 23
-114 -1z"/>
<path d="M710 765 c0 -32 29 -47 99 -48 65 -2 111 21 111 53 0 24 -15 25 -65
4 -34 -14 -42 -14 -86 0 -61 20 -59 20 -59 -9z"/>
</g>
</svg>
